<?xml version="1.0" standalone="no"?>
<!DOCTYPE svg PUBLIC "-//W3C//DTD SVG 20010904//EN"
 "http://www.w3.org/TR/2001/REC-SVG-20010904/DTD/svg10.dtd">
<svg version="1.0" xmlns="http://www.w3.org/2000/svg"
 width="408.000000pt" height="207.000000pt" viewBox="0 0 408.000000 207.000000"
 preserveAspectRatio="xMidYMid meet">
<metadata>
Created by potrace 1.16, written by Peter Selinger 2001-2019
</metadata>
<g transform="translate(0.000000,207.000000) scale(0.100000,-0.100000)"
fill="#000000" stroke="none">
<path d="M0 1035 l0 -1035 2040 0 2040 0 0 1035 0 1035 -2040 0 -2040 0 0
-1035z m961 795 c14 -8 19 -21 19 -50 0 -33 -4 -41 -22 -45 -13 -3 -158 -4
-323 -3 l-300 3 -3 38 c-6 68 -13 67 315 67 184 0 302 -4 314 -10z m840 -5
c95 -28 163 -70 137 -87 -7 -4 -205 -8 -441 -8 l-427 0 -11 26 c-10 28 -3 64
15 76 6 4 160 8 342 8 268 0 341 -3 385 -15z m853 6 c26 -10 50 -87 29 -95 -8
-3 -128 -6 -267 -6 -183 0 -255 3 -264 12 -16 16 -15 85 1 91 20 8 480 6 501
-2z m944 -3 c7 -7 12 -26 12 -43 0 -17 -5 -36 -12 -43 -9 -9 -80 -12 -259 -12
-136 0 -254 3 -263 6 -24 9 -19 35 17 92 11 17 487 18 505 0z m-2620 -212 c2
-24 -2 -42 -10 -47 -7 -5 -151 -9 -319 -9 -271 0 -308 2 -313 16 -8 21 -8 69
1 77 4 4 149 6 322 5 l316 -3 3 -39z m1066 18 c10 -14 16 -35 14 -47 l-3 -22
-492 -3 c-489 -2 -492 -2 -503 18 -6 12 -8 34 -5 51 l7 29 483 0 483 0 16 -26z
m694 -5 c11 -17 17 -40 15 -50 -5 -18 -20 -19 -297 -19 -214 0 -295 3 -304 12
-16 16 -15 75 1 81 6 3 136 6 289 6 l276 1 20 -31z m870 2 c2 -12 1 -34 -2
-47 l-6 -24 -293 2 -292 3 -3 28 c-2 17 4 37 14 48 16 18 32 19 298 17 l281
-3 3 -24z m-2810 -192 c3 -31 -1 -37 -20 -43 -30 -8 -232 -8 -252 0 -16 6 -23
64 -9 78 4 3 68 5 142 4 l136 -3 3 -36z m720 -1 l-3 -43 -135 0 -135 0 -6 30
c-10 54 -8 55 143 55 l139 0 -3 -42z m565 4 c0 -18 -4 -36 -8 -40 -9 -9 -240
-15 -271 -8 -20 5 -24 12 -24 46 l0 41 153 -3 152 -3 -2 -33z m717 17 c6 -11
10 -30 8 -42 -3 -22 -5 -22 -226 -25 -231 -2 -262 2 -262 38 0 51 -4 50 241
50 220 0 229 -1 239 -21z m628 -18 c2 -20 -2 -37 -10 -42 -16 -11 -449 -11
-465 -1 -10 6 -10 16 -1 45 l11 37 231 -2 231 -3 3 -34z m-2644 -134 c12 -9
17 -23 14 -47 l-3 -35 -140 0 -140 0 -3 33 c-6 56 7 62 137 62 80 0 123 -4
135 -13z m1241 3 c7 -12 -9 -44 -36 -71 -18 -18 -37 -19 -383 -19 l-364 0 -4
29 c-2 16 -1 38 4 50 7 21 10 21 392 21 240 0 387 -4 391 -10z m816 0 c10 -6
19 -20 19 -30 0 -29 27 -24 42 8 l13 27 244 3 c176 2 247 -1 258 -9 9 -8 13
-26 11 -48 l-3 -36 -544 -2 c-424 -2 -547 0 -553 10 -13 20 -9 49 9 69 15 16
36 18 250 18 142 0 242 -4 254 -10z m-2043 -208 c6 -57 -6 -62 -148 -62 -107
0 -129 3 -134 16 -8 21 -8 69 1 78 4 3 68 5 142 4 l136 -3 3 -33z m1201 3 c59
-68 75 -65 -364 -65 l-395 0 0 50 0 50 364 0 364 0 31 -35z m611 10 c6 -16 6
-34 0 -50 -9 -25 -10 -25 -140 -25 -129 0 -131 0 -142 25 -8 19 -8 31 0 50 11
25 13 25 142 25 130 0 131 0 140 -25z m480 0 c0 -14 -7 -37 -16 -50 l-16 -25
-179 0 c-172 0 -178 1 -193 22 -9 12 -16 35 -16 50 l0 28 210 0 210 0 0 -25z
m338 -4 c2 -12 1 -34 -2 -47 -6 -24 -8 -24 -134 -24 -86 0 -132 4 -140 12 -13
13 -16 70 -5 82 4 3 68 5 142 4 134 -3 136 -3 139 -27z m-2654 -151 c20 -7 26
-17 26 -38 0 -47 -13 -52 -151 -52 -106 0 -128 3 -133 16 -10 25 -7 59 6 72
15 15 215 17 252 2z m715 4 c30 -6 32 -9 29 -48 l-3 -41 -130 -3 c-106 -2
-132 0 -141 12 -15 21 -5 74 15 79 26 7 196 8 230 1z m571 -4 c20 -11 33 -50
24 -74 -6 -14 -26 -16 -153 -14 l-146 3 -3 42 c-2 33 1 42 15 46 35 9 245 7
263 -3z m538 1 c8 -5 12 -23 10 -47 l-3 -39 -129 -3 c-137 -3 -156 2 -156 44
0 46 22 54 148 54 64 0 123 -4 130 -9z m410 3 c26 -7 28 -24 7 -64 l-16 -30
-118 0 c-115 0 -119 1 -135 25 -21 32 -20 62 2 68 26 7 234 8 260 1z m410 -6
c13 -13 16 -47 6 -72 -5 -13 -27 -16 -133 -16 -138 0 -151 5 -151 52 0 20 7
31 23 38 34 14 241 12 255 -2z m-2443 -213 l0 -40 -320 0 -320 0 -3 28 c-7 60
-21 58 325 55 l318 -3 0 -40z m1086 33 c3 -25 -3 -43 -18 -60 -15 -17 -52 -18
-499 -18 -479 0 -483 0 -489 21 -4 11 -4 31 -1 45 l6 24 500 0 c393 0 500 -3
501 -12z m545 0 c12 -19 11 -58 -2 -69 -7 -5 -102 -8 -235 -7 l-224 3 -3 34
c-2 20 2 37 10 42 22 14 446 11 454 -3z m999 -33 l0 -40 -230 0 -230 0 -3 34
c-2 20 2 37 10 42 7 5 112 8 233 6 l220 -2 0 -40z m-1002 -135 c5 -4 7 -25 5
-46 l-3 -39 -210 -3 c-115 -1 -220 0 -232 3 -18 4 -23 12 -23 39 0 66 7 68
244 61 116 -4 215 -11 219 -15z m1000 0 c5 -4 7 -25 5 -46 l-3 -39 -210 -3
c-115 -1 -220 0 -232 3 -18 4 -23 12 -23 39 0 66 7 68 244 61 116 -4 215 -11
219 -15z m-2625 -37 c3 -37 0 -43 -20 -48 -13 -3 -158 -4 -323 -3 l-300 3 -3
33 c-6 66 -24 63 325 60 l318 -3 3 -42z m962 27 c-6 -10 -27 -26 -48 -35 -20
-9 -52 -23 -70 -31 -26 -11 -104 -14 -393 -14 l-359 0 -10 26 c-6 14 -7 36 -4
50 l6 24 444 0 c439 0 445 0 434 -20z"/>
</g>
</svg>
